<svg width="20" height="21" viewBox="0 0 20 21" fill="none" xmlns="http://www.w3.org/2000/svg">
<g clip-path="url(#clip0_4162_5871)">
<path d="M18.6545 10.0768H17.465C17.1942 9.31934 16.7579 8.64113 16.1994 8.08672L18.0339 7.27687C18.296 7.16117 18.4395 6.87202 18.365 6.59546C18.1438 5.77448 17.397 5.17053 16.5098 5.17053H14.9968C14.1267 5.17053 13.392 5.75167 13.1553 6.54858H11.5573C10.9571 8.76566 8.9297 10.4014 6.52751 10.4014C5.06113 10.4014 3.73453 9.79176 2.78683 8.81266C2.51991 9.19348 2.30128 9.6109 2.14015 10.0561C1.66151 9.95137 1.26796 9.57278 1.15792 9.07973C1.08745 8.76387 0.774048 8.56476 0.458422 8.63551C0.142601 8.70601 -0.0563065 9.01918 0.0142016 9.335C0.134046 9.872 0.435649 10.3596 0.863424 10.7078C1.1562 10.9462 1.50046 11.1121 1.86522 11.1953C1.83683 11.4186 1.82214 11.6463 1.82214 11.8773V12.4454C1.82214 14.5987 3.09347 16.4535 4.92305 17.2939V18.5852C4.92305 19.288 5.49278 19.8577 6.19555 19.8577C6.89833 19.8577 7.46806 19.288 7.46806 18.5852V17.7741H12.235V18.5852C12.235 19.288 12.8047 19.8577 13.5075 19.8577C14.2102 19.8577 14.78 19.288 14.78 18.5852V17.2443C16.1177 16.5935 17.1422 15.3949 17.5645 13.9384H18.6544C19.3976 13.9384 20.0001 13.3331 20.0001 12.5865V11.4287C20.0001 10.6821 19.3977 10.0768 18.6545 10.0768ZM14.3309 10.4151C14.0085 10.4151 13.7471 10.1538 13.7471 9.83129C13.7471 9.50883 14.0085 9.24746 14.3309 9.24746C14.6534 9.24746 14.9148 9.50883 14.9148 9.83129C14.9148 10.1538 14.6534 10.4151 14.3309 10.4151Z" fill="#16DBCC"/>
<path d="M6.52799 1.14233C4.30098 1.14233 2.48926 2.95633 2.48926 5.18598C2.48926 7.41568 4.30102 9.22967 6.52799 9.22967C8.75495 9.22967 10.5667 7.41568 10.5667 5.18598C10.5667 2.95625 8.75487 1.14233 6.52799 1.14233ZM6.15295 4.56813H6.90303C7.74913 4.56813 8.43745 5.25696 8.43745 6.10364C8.43745 6.87865 7.86053 7.52103 7.11393 7.62423V7.84431C7.11393 8.16791 6.85158 8.43025 6.52799 8.43025C6.20439 8.43025 5.94205 8.16791 5.94205 7.84431V7.63908H5.79255C5.14521 7.63908 4.61849 7.11212 4.61849 6.46439C4.61849 6.14079 4.88083 5.87845 5.20443 5.87845C5.52802 5.87845 5.79037 6.14079 5.79037 6.46439L6.90299 6.4672C7.10291 6.4672 7.26553 6.30407 7.26553 6.1036C7.26553 5.90313 7.10291 5.74001 6.90299 5.74001H6.15291C5.30681 5.74001 4.61849 5.05122 4.61849 4.20453C4.61849 3.42949 5.1954 2.78711 5.94205 2.6839V2.52769C5.94205 2.2041 6.20439 1.94175 6.52799 1.94175C6.85158 1.94175 7.11393 2.2041 7.11393 2.52769V2.66902H7.26338C7.91073 2.66902 8.43745 3.19601 8.43745 3.84375C8.43745 4.16735 8.1751 4.42969 7.85151 4.42969C7.52791 4.42969 7.26557 4.16735 7.26557 3.84375C7.26557 3.84281 7.26549 3.84242 7.26549 3.84242L6.15295 3.8409C5.95302 3.8409 5.79041 4.00402 5.79041 4.20453C5.79041 4.405 5.95302 4.56813 6.15295 4.56813Z" fill="#16DBCC"/>
</g>
<defs>
<clipPath id="clip0_4162_5871">
<rect width="20" height="20" fill="white" transform="translate(0 0.5)"/>
</clipPath>
</defs>
</svg>
