<svg width="27" height="26" viewBox="0 0 27 26" fill="none" xmlns="http://www.w3.org/2000/svg">
<path d="M13.3482 13C16.3821 13 18.8416 10.5749 18.8416 7.58332C18.8416 4.59178 16.3821 2.16666 13.3482 2.16666C10.3142 2.16666 7.85472 4.59178 7.85472 7.58332C7.85472 10.5749 10.3142 13 13.3482 13Z" stroke="#20AEF3" stroke-width="1.5"/>
<path d="M17.7432 17.3333H24.3353M18.8419 23.8333H5.94987C5.63826 23.8334 5.33021 23.7681 5.04614 23.6418C4.76208 23.5155 4.5085 23.3311 4.30225 23.1008C4.096 22.8704 3.94178 22.5995 3.84984 22.3059C3.7579 22.0124 3.73033 21.7029 3.76897 21.398L4.19746 18.0136C4.29711 17.2274 4.68464 16.5041 5.28718 15.9798C5.88972 15.4555 6.66575 15.1663 7.46936 15.1666H7.855L18.8419 23.8333ZM21.0393 14.0833V20.5833V14.0833Z" stroke="#20AEF3" stroke-width="1.5" stroke-linecap="round" stroke-linejoin="round"/>
</svg>
