<svg width="22" height="22" viewBox="0 0 22 22" fill="none" xmlns="http://www.w3.org/2000/svg">
<path d="M20.2785 0.125H2.31566C1.33413 0.125 0.476562 0.83867 0.476562 1.81887V20.0111C0.476562 20.9967 1.33413 21.8749 2.31566 21.8749H20.2733C21.2601 21.8749 21.9999 20.9909 21.9999 20.0111V1.81887C22.0057 0.83867 21.2601 0.125 20.2785 0.125ZM7.14833 18.2546H4.06491V8.56669H7.14833V18.2546ZM5.71328 7.09372H5.69118C4.70437 7.09372 4.06539 6.3514 4.06539 5.42218C4.06539 4.47596 4.72118 3.75112 5.73009 3.75112C6.739 3.75112 7.35636 4.47062 7.37846 5.42218C7.37797 6.3514 6.739 7.09372 5.71328 7.09372ZM18.4174 18.2546H15.3339V12.9575C15.3339 11.6884 14.8852 10.8213 13.7696 10.8213C12.9174 10.8213 12.4129 11.4039 12.1885 11.9714C12.1045 12.1753 12.0819 12.453 12.0819 12.7366V18.2546H8.99847V8.56669H12.0819V9.9149C12.5306 9.2692 13.2316 8.33997 14.8626 8.33997C16.8867 8.33997 18.4178 9.68817 18.4178 12.5948L18.4174 18.2546Z" fill="#9395A4"/>
</svg>
