<svg class="svg-icon icon" style="width: 1em; height: 1em;vertical-align: middle;fill: currentColor;overflow: hidden;" viewBox="0 0 1024 1024" version="1.1" xmlns="http://www.w3.org/2000/svg">
    <path d="M629.845333 333.824L835.669333 128H725.333333a42.666667 42.666667 0 1 1 0-85.333333h213.333334a42.666667 42.666667 0 0 1 42.666666 42.666666v213.333334a42.666667 42.666667 0 1 1-85.333333 0V188.330667l-205.824 205.824A361.109333 361.109333 0 0 1 768 618.666667c0 200.298667-162.368 362.666667-362.666667 362.666666S42.666667 818.965333 42.666667 618.666667s162.368-362.666667 362.666666-362.666667c84.778667 0 162.752 29.077333 224.512 77.824zM405.333333 896c153.173333 0 277.333333-124.16 277.333334-277.333333s-124.16-277.333333-277.333334-277.333334S128 465.493333 128 618.666667s124.16 277.333333 277.333333 277.333333z" fill="#2b52ff" />
</svg>