<svg width="27" height="26" viewBox="0 0 27 26" fill="none" xmlns="http://www.w3.org/2000/svg">
<path d="M19.3006 7.24477H22.9059C23.1239 7.24499 23.3342 7.32613 23.4958 7.47249C23.6574 7.61885 23.759 7.81999 23.7808 8.03696L24.3177 13.4062H22.5468L22.1067 9.00519H19.3006V11.6458C19.3006 11.8793 19.2078 12.1031 19.0427 12.2682C18.8777 12.4333 18.6538 12.526 18.4203 12.526C18.1869 12.526 17.963 12.4333 17.7979 12.2682C17.6329 12.1031 17.5401 11.8793 17.5401 11.6458V9.00519H10.4985V11.6458C10.4985 11.8793 10.4057 12.1031 10.2407 12.2682C10.0756 12.4333 9.85171 12.526 9.61826 12.526C9.38482 12.526 9.16093 12.4333 8.99586 12.2682C8.83079 12.1031 8.73805 11.8793 8.73805 11.6458V9.00519H5.93019L4.52186 23.0885H14.0193V24.8489H3.54835C3.42541 24.8488 3.30385 24.8229 3.19152 24.773C3.07919 24.723 2.97857 24.6501 2.89614 24.5589C2.81372 24.4677 2.75131 24.3602 2.71295 24.2434C2.67459 24.1266 2.66112 24.003 2.67342 23.8807L4.25779 8.03696C4.2796 7.81999 4.38116 7.61885 4.54281 7.47249C4.70445 7.32613 4.91466 7.24499 5.13272 7.24477H8.73805V6.63039C8.73805 3.57782 11.09 1.08331 14.0193 1.08331C16.9486 1.08331 19.3006 3.57782 19.3006 6.63039V7.24653V7.24477ZM17.5401 7.24477V6.63039C17.5401 4.52845 15.9522 2.84373 14.0193 2.84373C12.0864 2.84373 10.4985 4.52845 10.4985 6.63039V7.24653H17.5401V7.24477ZM23.0802 20.3423C23.1605 20.2549 23.2576 20.1847 23.3657 20.1358C23.4739 20.0869 23.5907 20.0604 23.7094 20.0579C23.828 20.0554 23.9459 20.0768 24.0561 20.121C24.1662 20.1652 24.2662 20.2312 24.3502 20.3151C24.4342 20.3989 24.5003 20.4989 24.5447 20.6089C24.589 20.719 24.6106 20.8369 24.6083 20.9555C24.6059 21.0741 24.5796 21.1911 24.5308 21.2993C24.4821 21.4075 24.412 21.5047 24.3248 21.5851L20.8039 25.106C20.6389 25.271 20.415 25.3637 20.1816 25.3637C19.9482 25.3637 19.7244 25.271 19.5593 25.106L16.0385 21.5851C15.9544 21.5039 15.8874 21.4068 15.8412 21.2994C15.7951 21.192 15.7708 21.0765 15.7698 20.9597C15.7688 20.8428 15.7911 20.7269 15.8353 20.6187C15.8796 20.5105 15.9449 20.4122 16.0276 20.3296C16.1102 20.247 16.2085 20.1816 16.3167 20.1373C16.4249 20.0931 16.5408 20.0708 16.6576 20.0718C16.7745 20.0728 16.89 20.0971 16.9974 20.1433C17.1048 20.1894 17.2019 20.2564 17.2831 20.3405L19.3006 22.3597V16.0469C19.3006 15.8134 19.3933 15.5895 19.5584 15.4245C19.7234 15.2594 19.9473 15.1666 20.1808 15.1666C20.4142 15.1666 20.6381 15.2594 20.8032 15.4245C20.9682 15.5895 21.061 15.8134 21.061 16.0469V22.3597L23.0802 20.3405V20.3423Z" fill="#F2C8ED"/>
</svg>
