<svg width="27" height="26" viewBox="0 0 27 26" fill="none" xmlns="http://www.w3.org/2000/svg">
<path d="M18.4987 3.69315H21.2645C21.5609 3.69315 21.8451 3.81204 22.0547 4.02367C22.2643 4.2353 22.382 4.52233 22.382 4.82163V23.4415C22.382 23.7408 22.2643 24.0279 22.0547 24.2395C21.8451 24.4511 21.5609 24.57 21.2645 24.57H5.61951C5.32313 24.57 5.03889 24.4511 4.82932 24.2395C4.61975 24.0279 4.50201 23.7408 4.50201 23.4415V4.82163C4.50201 4.52233 4.61975 4.2353 4.82932 4.02367C5.03889 3.81204 5.32313 3.69315 5.61951 3.69315H9.53076V5.38587H17.3533V3.69315H18.4987Z" stroke="#A9DFD8" stroke-width="1.5" stroke-linejoin="round"/>
<path d="M15.1187 10.4636L10.6487 14.9781H16.2384L11.7662 19.492M9.53117 2H17.3537V5.38544H9.53117V2Z" stroke="#A9DFD8" stroke-width="1.5" stroke-linecap="round" stroke-linejoin="round"/>
</svg>
