<svg width="20" height="21" viewBox="0 0 20 21" fill="none" xmlns="http://www.w3.org/2000/svg">
<g clip-path="url(#clip0_4162_5864)">
<path d="M16.7549 0.5C15.6109 0.5 14.6836 1.42734 14.6836 2.57129V8.75156H18.2402C18.5638 8.75156 18.8262 8.48922 18.8262 8.16563V2.57129C18.8262 1.42734 17.8988 0.5 16.7549 0.5V0.5Z" fill="#396AFF"/>
<path d="M7.08441 15.2266C7.08441 11.687 9.96375 8.77176 13.5507 8.78152V2.82367C13.5507 1.93238 13.8862 1.11809 14.4373 0.5H4.10273C2.48789 0.5 1.17383 1.81406 1.17383 3.42891V19.9035C1.17383 20.4306 1.81863 20.6896 2.1832 20.3086L2.93281 19.5258L3.72461 20.318C3.95312 20.5465 4.32422 20.5465 4.55312 20.318L5.30352 19.568L6.06133 20.3195C6.28984 20.5461 6.6582 20.5461 6.88672 20.3195L7.65664 19.5562L8.42695 20.3195C8.65508 20.5461 9.02305 20.5461 9.25156 20.3199L9.40078 20.1723C7.94797 18.9576 7.08441 17.1616 7.08441 15.2266ZM5.91391 5.22656H7.07031V4.07016C7.07031 3.74656 7.33266 3.48422 7.65625 3.48422C7.97984 3.48422 8.24219 3.74656 8.24219 4.07016V5.22656H9.39859C9.72219 5.22656 9.98453 5.48891 9.98453 5.8125C9.98453 6.13609 9.72219 6.39844 9.39859 6.39844H8.24219V7.55484C8.24219 7.87844 7.97984 8.14078 7.65625 8.14078C7.33266 8.14078 7.07031 7.87844 7.07031 7.55484V6.39844H5.91391C5.59031 6.39844 5.32797 6.13609 5.32797 5.8125C5.32797 5.48891 5.59031 5.22656 5.91391 5.22656ZM4.14059 9.33008H8.08594C8.40953 9.33008 8.67188 9.59242 8.67188 9.91602C8.67188 10.2396 8.40953 10.502 8.08594 10.502H4.14059C3.81699 10.502 3.55465 10.2396 3.55465 9.91602C3.55465 9.59242 3.81699 9.33008 4.14059 9.33008ZM6.09566 15.1855H4.13668C3.81309 15.1855 3.55074 14.9232 3.55074 14.5996C3.55074 14.276 3.81309 14.0137 4.13668 14.0137H6.09566C6.41926 14.0137 6.6816 14.276 6.6816 14.5996C6.6816 14.9232 6.41926 15.1855 6.09566 15.1855ZM6.48633 12.8457H4.13859C3.815 12.8457 3.55266 12.5834 3.55266 12.2598C3.55266 11.9362 3.815 11.6738 4.13859 11.6738H6.48633C6.80992 11.6738 7.07227 11.9362 7.07227 12.2598C7.07227 12.5834 6.80992 12.8457 6.48633 12.8457Z" fill="#396AFF"/>
<path d="M13.5298 9.95312C10.622 9.95312 8.25635 12.3188 8.25635 15.2266C8.25635 18.1343 10.622 20.5 13.5298 20.5C16.4376 20.5 18.8032 18.1343 18.8032 15.2266C18.8032 12.3188 16.4376 9.95312 13.5298 9.95312ZM14.1176 17.4832V17.5389C14.1176 17.8625 13.8552 18.1248 13.5316 18.1248C13.208 18.1248 12.9457 17.8625 12.9457 17.5389V17.5289C12.6832 17.4664 12.4397 17.363 12.2466 17.2367C11.9758 17.0595 11.8999 16.6964 12.0771 16.4255C12.2542 16.1547 12.6174 16.0788 12.8882 16.256C13.128 16.4129 13.5233 16.4725 13.7176 16.3811C13.8435 16.3218 13.9409 16.1954 13.9545 16.0736C13.9835 15.8141 13.577 15.6694 13.3343 15.5735C12.9671 15.4285 12.5099 15.2479 12.2446 14.7689C11.8663 14.0861 12.1976 13.1858 12.9457 12.8779V12.8484C12.9457 12.5248 13.208 12.2625 13.5316 12.2625C13.852 12.2625 14.112 12.5198 14.1171 12.8389C14.328 12.9048 14.5223 13.0103 14.6778 13.1538C14.9157 13.3732 14.9307 13.7439 14.7113 13.9818C14.4919 14.2197 14.1212 14.2346 13.8833 14.0152C13.7869 13.9263 13.4899 13.8904 13.3608 13.9771C13.274 14.0354 13.2399 14.1473 13.2697 14.2009C13.3934 14.4243 14.0415 14.5009 14.5319 14.8831C15.5338 15.6638 15.1852 17.0736 14.1176 17.4832Z" fill="#396AFF"/>
</g>
<defs>
<clipPath id="clip0_4162_5864">
<rect width="20" height="20" fill="white" transform="translate(0 0.5)"/>
</clipPath>
</defs>
</svg>
