<svg width="20" height="18" viewBox="0 0 20 18" fill="none" xmlns="http://www.w3.org/2000/svg">
<path d="M2.5 0.25H17.5C18.1641 0.25 18.75 0.835938 18.75 1.5C18.75 2.20312 18.1641 2.75 17.5 2.75H3.125C2.77344 2.75 2.5 3.0625 2.5 3.375C2.5 3.72656 2.77344 4 3.125 4H17.5C18.8672 4 20 5.13281 20 6.5V15.25C20 16.6562 18.8672 17.75 17.5 17.75H2.5C1.09375 17.75 0 16.6562 0 15.25V2.75C0 1.38281 1.09375 0.25 2.5 0.25ZM16.25 9.625C15.5469 9.625 15 10.2109 15 10.875C15 11.5781 15.5469 12.125 16.25 12.125C16.9141 12.125 17.5 11.5781 17.5 10.875C17.5 10.2109 16.9141 9.625 16.25 9.625Z" fill="#FFBB38"/>
</svg>
