<svg width="25" height="21" viewBox="0 0 25 21" fill="none" xmlns="http://www.w3.org/2000/svg">
<path d="M0 2.5C0 1.13281 1.09375 0 2.5 0H20C21.3672 0 22.5 1.13281 22.5 2.5V8.28125C21.7188 7.89062 20.8594 7.61719 20 7.53906V2.5H2.5V13.75H12.5C12.5 13.9844 12.5 14.1797 12.5 14.375C12.5 16.7188 13.6328 18.7891 15.3906 20H6.25C5.54688 20 5 19.4531 5 18.75C5 18.0859 5.54688 17.5 6.25 17.5H8.94531L9.375 16.25H2.5C1.09375 16.25 0 15.1562 0 13.75V2.5ZM18.75 4.6875V7.53906C18.0859 7.61719 17.4609 7.73438 16.875 7.96875C16.875 7.92969 16.875 7.89062 16.875 7.8125V6.95312L12.5391 11.2891C12.3438 11.4844 12.1094 11.5625 11.875 11.5625C11.6016 11.5625 11.3672 11.4844 11.2109 11.2891L8.75 8.82812L5.35156 12.2266C4.96094 12.6172 4.375 12.6172 4.02344 12.2266C3.63281 11.875 3.63281 11.2891 4.02344 10.9375L8.08594 6.83594C8.4375 6.48438 9.02344 6.48438 9.375 6.83594L11.8359 9.29688L15.5469 5.625H14.6875C14.1406 5.625 13.75 5.23438 13.75 4.6875C13.75 4.17969 14.1406 3.75 14.6875 3.75H17.8125C18.3203 3.75 18.75 4.17969 18.75 4.6875ZM13.75 14.375C13.75 12.3828 14.8047 10.5469 16.5625 9.53125C18.2812 8.51562 20.4297 8.51562 22.1875 9.53125C23.9062 10.5469 25 12.3828 25 14.375C25 16.4062 23.9062 18.2422 22.1875 19.2578C20.4297 20.2734 18.2812 20.2734 16.5625 19.2578C14.8047 18.2422 13.75 16.4062 13.75 14.375ZM18.4375 13.125C18.4766 13.0859 18.5156 13.0469 18.6328 12.9688C18.8281 12.8906 19.1016 12.8125 19.3359 12.8125C19.6484 12.8516 20 12.8906 20.3906 13.0078C20.7031 13.0859 21.0547 12.8516 21.1328 12.5391C21.2109 12.1875 21.0156 11.875 20.6641 11.7578C20.4688 11.7188 20.2344 11.6797 19.9609 11.6406V11.25C19.9609 10.9375 19.6875 10.625 19.3359 10.625C19.0234 10.625 18.7109 10.9375 18.7109 11.25V11.6406C18.4766 11.6797 18.2422 11.7578 18.0078 11.875C17.5781 12.1484 17.1094 12.6172 17.1875 13.3203C17.2266 13.9453 17.6172 14.3359 18.0078 14.5312C18.3594 14.7266 18.7891 14.8438 19.1406 14.9219L19.2188 14.9609C19.6094 15.0781 19.9219 15.1562 20.1172 15.2734C20.2734 15.3906 20.3125 15.4297 20.3125 15.5078C20.3125 15.5859 20.2734 15.6641 20.2734 15.6641C20.2344 15.7031 20.1953 15.7812 20.1172 15.8203C19.9219 15.8984 19.6484 15.9375 19.375 15.9375C19.0234 15.9375 18.6719 15.8203 18.2031 15.6641C18.125 15.6641 18.0469 15.625 17.9688 15.625C17.6562 15.5078 17.3047 15.7031 17.1875 16.0156C17.1094 16.3672 17.2656 16.7188 17.6172 16.7969C17.6562 16.8359 17.7344 16.8359 17.8125 16.875C18.0859 16.9531 18.3984 17.0703 18.75 17.1094V17.5781C18.75 17.9297 19.0234 18.2031 19.375 18.2031C19.6875 18.2031 20 17.9297 20 17.5781V17.1484C20.2344 17.1094 20.4688 17.0312 20.7031 16.9141C21.1719 16.6406 21.5625 16.1719 21.5625 15.4688C21.5234 14.8438 21.1328 14.4531 20.7422 14.2188C20.3906 13.9844 19.9219 13.8672 19.5703 13.75H19.5312C19.1406 13.6328 18.8281 13.5547 18.5938 13.4375C18.4375 13.3203 18.4375 13.2812 18.4375 13.2812V13.2422C18.4375 13.2031 18.4375 13.1641 18.4375 13.125Z" fill="#FF82AC"/>
</svg>
