<svg width="48" height="50" viewBox="0 0 48 50" fill="none" xmlns="http://www.w3.org/2000/svg">
<g clip-path="url(#clip0_4391_2542)">
<path d="M48 11.7201L38.2484 0.172363H9.75158L0 11.7201L4.09263 16.5651L0 21.4101L24 49.8275L48 21.4101L43.9074 16.5651L48 11.7201ZM24 43.8026L5.09053 21.4101L6.63158 19.5775L23.9874 40.1375L41.3558 19.5775L42.8968 21.4101L23.9874 43.8026H24ZM41.3558 13.5526L38.8042 16.5651L25.9453 31.8031V17.6195H35.2168L40.1937 11.7201L35.3558 5.98388H12.6442L9.37263 9.8624H33.5368L35.1032 11.7201L33.3979 13.7409H22.0421V31.8031L9.18316 16.5651L6.63158 13.5526L5.09053 11.7201L11.5705 4.05089H36.4295L42.9095 11.7201L41.3684 13.5526H41.3558Z" fill="#2B52FF"/>
</g>
<defs>
<clip-path id="clip0_4391_2542">
<rect width="48" height="49.6552" fill="white" transform="translate(0 0.172363)"/>
</clip-path>
</defs>
</svg>
