<svg width="35" height="29" viewBox="0 0 35 29" fill="none" xmlns="http://www.w3.org/2000/svg">
<path d="M24.5 8.375H3.5C2.02344 8.375 0.875 9.57812 0.875 11V25C0.875 26.4766 2.02344 27.625 3.5 27.625H20.5078C20.8359 27.9531 21.1641 28.2812 21.5469 28.5H3.5C1.53125 28.5 0 26.9688 0 25V11C0 9.08594 1.53125 7.5 3.5 7.5H24.5C26.4141 7.5 28 9.08594 28 11V11.0547C27.6719 11.0547 27.3984 11 27.125 11C27.125 9.57812 25.9219 8.375 24.5 8.375ZM24.9375 4C25.1562 4 25.375 4.21875 25.375 4.4375C25.375 4.71094 25.1562 4.875 24.9375 4.875H3.0625C2.78906 4.875 2.625 4.71094 2.625 4.4375C2.625 4.21875 2.78906 4 3.0625 4H24.9375ZM22.3125 0.5C22.5312 0.5 22.75 0.71875 22.75 0.9375C22.75 1.21094 22.5312 1.375 22.3125 1.375H5.6875C5.41406 1.375 5.25 1.21094 5.25 0.9375C5.25 0.71875 5.41406 0.5 5.6875 0.5H22.3125ZM20.125 20.625C20.125 23.1406 21.4375 25.4375 23.625 26.6953C25.7578 27.9531 28.4375 27.9531 30.625 26.6953C32.7578 25.4375 34.125 23.1406 34.125 20.625C34.125 18.1641 32.7578 15.8672 30.625 14.6094C28.4375 13.3516 25.7578 13.3516 23.625 14.6094C21.4375 15.8672 20.125 18.1641 20.125 20.625ZM35 20.625C35 23.4688 33.4688 26.0391 31.0625 27.4609C28.6016 28.8828 25.5938 28.8828 23.1875 27.4609C20.7266 26.0391 19.25 23.4688 19.25 20.625C19.25 17.8359 20.7266 15.2656 23.1875 13.8438C25.5938 12.4219 28.6016 12.4219 31.0625 13.8438C33.4688 15.2656 35 17.8359 35 20.625ZM27.5625 16.6875V20.1875H31.0625C31.2812 20.1875 31.5 20.4062 31.5 20.625C31.5 20.8984 31.2812 21.0625 31.0625 21.0625H27.5625V24.5625C27.5625 24.8359 27.3438 25 27.125 25C26.8516 25 26.6875 24.8359 26.6875 24.5625V21.0625H23.1875C22.9141 21.0625 22.75 20.8984 22.75 20.625C22.75 20.4062 22.9141 20.1875 23.1875 20.1875H26.6875V16.6875C26.6875 16.4688 26.8516 16.25 27.125 16.25C27.3438 16.25 27.5625 16.4688 27.5625 16.6875Z" fill="#191C32"/>
</svg>
