<svg width="28" height="21" viewBox="0 0 28 21" fill="none" xmlns="http://www.w3.org/2000/svg">
<path d="M3.5 0.875C2.02344 0.875 0.875 2.07812 0.875 3.5V5.08594L12.0312 14.1094C13.1797 14.9844 14.7656 14.9844 15.9141 14.1094L27.125 5.08594V3.5C27.125 2.07812 25.9219 0.875 24.5 0.875H3.5ZM0.875 6.17969V17.5C0.875 18.9766 2.02344 20.125 3.5 20.125H24.5C25.9219 20.125 27.125 18.9766 27.125 17.5V6.17969L16.4609 14.7656C14.9844 15.9688 12.9609 15.9688 11.4844 14.7656L0.875 6.17969ZM0 3.5C0 1.58594 1.53125 0 3.5 0H24.5C26.4141 0 28 1.58594 28 3.5V17.5C28 19.4688 26.4141 21 24.5 21H3.5C1.53125 21 0 19.4688 0 17.5V3.5Z" fill="#191C32"/>
</svg>
