
<svg xmlns="http://www.w3.org/2000/svg" xmlns:xlink="http://www.w3.org/1999/xlink" width="48px" height="48px" viewBox="0 0 48 48" version="1.1">
<g id="surface1">
<rect x="0" y="0" width="48" height="48" style="fill:rgb(15.294118%,31.37255%,99.607843%);fill-opacity:1;stroke:none;"/>
<path style=" stroke:none;fill-rule:nonzero;fill:rgb(98.823529%,99.215686%,99.215686%);fill-opacity:1;" d="M 0 0 L 48 0 L 48 48 L 0 48 Z M 23.398438 4.800781 L 22.488281 4.847656 L 21.742188 4.921875 L 20.832031 5.039062 L 19.96875 5.207031 L 19.054688 5.425781 L 18.097656 5.710938 L 17.089844 6.070312 L 16.441406 6.335938 L 15.886719 6.574219 L 15.503906 6.769531 L 14.761719 7.152344 L 14.183594 7.488281 L 13.824219 7.703125 L 13.558594 7.871094 L 13.199219 8.113281 L 12.742188 8.425781 L 12.335938 8.734375 L 12 9 L 11.375 9.527344 L 11.113281 9.769531 L 10.921875 9.9375 L 10.800781 10.03125 L 10.800781 10.078125 L 10.703125 10.128906 L 10.03125 10.800781 L 9.863281 10.992188 L 9.527344 11.351562 L 9.335938 11.59375 L 9.023438 11.953125 L 8.808594 12.238281 L 8.472656 12.671875 L 8.28125 12.960938 L 8.015625 13.34375 L 7.65625 13.894531 L 7.34375 14.425781 L 6.960938 15.121094 L 6.550781 15.9375 L 6.144531 16.894531 L 5.878906 17.617188 L 5.640625 18.335938 L 5.425781 19.105469 L 5.257812 19.800781 L 5.089844 20.640625 L 4.96875 21.40625 L 4.871094 22.273438 L 4.824219 22.992188 L 4.824219 24.9375 L 4.894531 25.945312 L 5.015625 26.902344 L 5.160156 27.742188 L 5.28125 28.320312 L 5.472656 29.089844 L 5.6875 29.808594 L 6 30.71875 L 6.3125 31.488281 L 6.601562 32.136719 L 7.054688 33.046875 L 7.296875 33.480469 L 7.558594 33.9375 L 7.824219 34.34375 L 8.207031 34.921875 L 8.375 35.160156 L 8.6875 35.59375 L 8.953125 35.929688 L 9.289062 36.335938 L 9.3125 36.382812 L 9.359375 36.382812 L 9.40625 36.480469 L 9.625 36.71875 L 9.863281 36.984375 L 10.03125 37.175781 L 10.175781 37.34375 L 10.558594 37.726562 L 10.753906 37.894531 L 10.96875 38.113281 L 11.160156 38.28125 L 11.398438 38.496094 L 11.640625 38.6875 L 11.976562 38.976562 L 12.382812 39.289062 L 12.769531 39.574219 L 13.222656 39.886719 L 13.511719 40.078125 L 13.847656 40.296875 L 14.328125 40.585938 L 14.710938 40.800781 L 15.046875 40.992188 L 15.433594 41.183594 L 16.078125 41.496094 L 16.679688 41.761719 L 17.855469 42.191406 L 18.671875 42.457031 L 19.390625 42.648438 L 20.257812 42.839844 L 21.121094 42.984375 L 22.078125 43.105469 L 22.96875 43.175781 L 23.808594 43.199219 L 24.167969 43.199219 L 25.078125 43.175781 L 26.183594 43.078125 L 27.359375 42.910156 L 28.078125 42.769531 L 28.96875 42.550781 L 29.617188 42.359375 L 30.480469 42.070312 L 31.175781 41.808594 L 31.800781 41.542969 L 32.425781 41.257812 L 32.929688 40.992188 L 33.214844 40.847656 L 33.792969 40.511719 L 34.273438 40.222656 L 34.632812 39.984375 L 35.089844 39.671875 L 35.496094 39.382812 L 35.878906 39.070312 L 36.214844 38.808594 L 36.886719 38.230469 L 37.246094 37.894531 L 37.414062 37.726562 L 37.609375 37.558594 L 37.800781 37.367188 L 37.96875 37.175781 L 38.183594 36.960938 L 38.351562 36.769531 L 38.617188 36.457031 L 38.832031 36.214844 L 39.144531 35.808594 L 39.335938 35.566406 L 39.601562 35.207031 L 40.128906 34.414062 L 40.488281 33.863281 L 40.777344 33.335938 L 40.992188 32.953125 L 41.183594 32.566406 L 41.398438 32.113281 L 41.542969 31.824219 L 41.902344 30.960938 L 42.167969 30.238281 L 42.457031 29.328125 L 42.695312 28.414062 L 42.886719 27.480469 L 43.007812 26.734375 L 43.105469 25.921875 L 43.175781 24.863281 L 43.175781 23.136719 L 43.128906 22.34375 L 43.03125 21.457031 L 42.886719 20.519531 L 42.695312 19.609375 L 42.527344 18.9375 L 42.3125 18.191406 L 42.023438 17.351562 L 41.6875 16.511719 L 41.398438 15.863281 L 41.089844 15.214844 L 40.800781 14.6875 L 40.558594 14.257812 L 40.246094 13.753906 L 39.816406 13.105469 L 39.527344 12.695312 L 39.335938 12.433594 L 39.046875 12.070312 L 38.785156 11.734375 L 38.496094 11.398438 L 38.257812 11.136719 L 38.089844 10.945312 L 37.871094 10.726562 L 37.703125 10.535156 L 37.34375 10.175781 L 37.152344 10.007812 L 36.960938 9.816406 L 36.695312 9.601562 L 36.40625 9.335938 L 36.144531 9.121094 L 35.472656 8.59375 L 35.0625 8.304688 L 34.753906 8.089844 L 34.273438 7.777344 L 33.960938 7.585938 L 33.550781 7.34375 L 32.902344 6.984375 L 32.398438 6.71875 L 31.609375 6.359375 L 30.960938 6.097656 L 30.097656 5.785156 L 29.207031 5.496094 L 28.054688 5.207031 L 27.046875 5.015625 L 26.039062 4.894531 L 25.199219 4.824219 L 24.695312 4.800781 Z M 23.398438 4.800781 "/>
<path style=" stroke:none;fill-rule:nonzero;fill:rgb(63.529414%,81.176472%,99.215686%);fill-opacity:1;" d="M 23.351562 12.480469 L 24.625 12.480469 L 25.246094 12.527344 L 25.945312 12.625 L 26.640625 12.769531 L 27.3125 12.960938 L 27.9375 13.175781 L 28.609375 13.441406 L 29.398438 13.824219 L 29.808594 14.039062 L 30.144531 14.257812 L 30.433594 14.449219 L 30.695312 14.640625 L 31.078125 14.929688 L 31.464844 15.238281 L 31.824219 15.550781 L 32.015625 15.742188 L 32.207031 15.910156 L 32.566406 16.296875 L 33.097656 16.921875 L 33.433594 17.375 L 33.71875 17.808594 L 33.984375 18.238281 L 34.273438 18.769531 L 34.585938 19.414062 L 34.800781 19.96875 L 34.96875 20.425781 L 35.160156 21.097656 L 35.304688 21.71875 L 35.425781 22.441406 L 35.496094 23.089844 L 35.519531 23.496094 L 35.519531 24.503906 L 35.472656 25.152344 L 35.375 25.847656 L 35.28125 26.398438 L 35.039062 27.3125 L 34.777344 28.078125 L 34.558594 28.609375 L 34.222656 29.304688 L 34.007812 29.710938 L 33.671875 30.265625 L 33.335938 30.742188 L 32.953125 31.246094 L 32.640625 31.609375 L 32.472656 31.777344 L 32.304688 31.96875 L 31.871094 32.398438 L 31.679688 32.566406 L 31.390625 32.832031 L 31.054688 33.097656 L 30.625 33.40625 L 30.3125 33.625 L 29.855469 33.910156 L 29.328125 34.199219 L 28.703125 34.511719 L 28.054688 34.777344 L 27.3125 35.039062 L 26.28125 35.304688 L 25.441406 35.425781 L 24.960938 35.472656 L 24.214844 35.519531 L 23.808594 35.519531 L 22.824219 35.449219 L 22.054688 35.351562 L 21.433594 35.230469 L 20.6875 35.039062 L 19.800781 34.726562 L 19.296875 34.511719 L 18.503906 34.128906 L 18 33.839844 L 17.542969 33.550781 L 17.089844 33.214844 L 16.777344 32.976562 L 16.535156 32.761719 L 16.34375 32.59375 L 16.105469 32.375 L 15.910156 32.183594 L 15.71875 32.015625 L 15.191406 31.441406 L 14.976562 31.175781 L 14.640625 30.742188 L 14.304688 30.238281 L 14.089844 29.878906 L 13.800781 29.375 L 13.609375 28.96875 L 13.464844 28.679688 L 13.199219 28.03125 L 12.910156 27.167969 L 12.71875 26.398438 L 12.601562 25.726562 L 12.503906 24.816406 L 12.480469 24.382812 L 12.480469 23.472656 L 12.527344 22.847656 L 12.625 22.128906 L 12.792969 21.265625 L 12.960938 20.640625 L 13.246094 19.824219 L 13.511719 19.222656 L 13.726562 18.769531 L 13.96875 18.335938 L 14.183594 17.976562 L 14.519531 17.449219 L 15 16.824219 L 15.191406 16.585938 L 15.433594 16.320312 L 15.601562 16.128906 L 16.222656 15.503906 L 16.488281 15.289062 L 16.726562 15.070312 L 17.0625 14.808594 L 17.496094 14.496094 L 17.734375 14.328125 L 18.046875 14.136719 L 18.40625 13.921875 L 19.273438 13.488281 L 19.871094 13.246094 L 20.375 13.054688 L 21 12.863281 L 21.550781 12.71875 L 22.199219 12.601562 L 22.96875 12.503906 Z M 23.351562 12.480469 "/>
<path style=" stroke:none;fill-rule:nonzero;fill:rgb(15.294118%,31.37255%,99.607843%);fill-opacity:1;" d="M 24 17.519531 L 24.695312 17.519531 L 25.273438 17.59375 L 25.894531 17.710938 L 26.542969 17.902344 L 27.023438 18.097656 L 27.503906 18.335938 L 27.960938 18.625 L 28.34375 18.910156 L 28.679688 19.199219 L 29.113281 19.632812 L 29.113281 19.679688 L 29.160156 19.679688 L 29.425781 20.015625 L 29.664062 20.328125 L 29.953125 20.808594 L 30.191406 21.238281 L 30.457031 21.839844 L 30.625 22.296875 L 30.71875 22.609375 L 30.742188 22.753906 L 30.742188 23.136719 L 30.625 23.449219 L 30.457031 23.734375 L 30.238281 23.976562 L 30 24.191406 L 29.640625 24.40625 L 29.230469 24.574219 L 28.871094 24.671875 L 28.34375 24.769531 L 27.910156 24.816406 L 27.238281 24.839844 L 26.902344 24.839844 L 25.992188 24.742188 L 25.34375 24.625 L 24.601562 24.433594 L 23.902344 24.214844 L 22.871094 23.855469 L 22.128906 23.542969 L 21.480469 23.257812 L 21 23.015625 L 20.496094 22.726562 L 20.183594 22.535156 L 19.65625 22.222656 L 19.199219 21.9375 L 18.839844 21.648438 L 18.839844 21.601562 L 18.769531 21.574219 L 18.671875 21.433594 L 18.648438 21.265625 L 18.71875 20.976562 L 18.839844 20.6875 L 19.03125 20.351562 L 19.320312 19.945312 L 19.632812 19.558594 L 19.96875 19.199219 L 20.160156 19.03125 L 20.449219 18.792969 L 20.855469 18.503906 L 21.214844 18.289062 L 21.671875 18.046875 L 22.273438 17.832031 L 22.871094 17.664062 L 23.472656 17.566406 Z M 24 17.519531 "/>
<path style=" stroke:none;fill-rule:nonzero;fill:rgb(15.294118%,31.37255%,99.607843%);fill-opacity:1;" d="M 17.59375 22.945312 L 17.734375 22.96875 L 18.046875 23.136719 L 18.457031 23.425781 L 18.71875 23.640625 L 19.175781 23.976562 L 19.535156 24.265625 L 19.703125 24.457031 L 20.183594 24.9375 L 20.472656 25.320312 L 20.664062 25.679688 L 20.734375 25.945312 L 20.785156 26.449219 L 20.832031 27.023438 L 20.832031 27.214844 L 21.480469 27.070312 L 22.199219 26.953125 L 22.945312 26.878906 L 23.375 26.855469 L 24.144531 26.855469 L 25.078125 26.902344 L 26.207031 27 L 27.816406 27.121094 L 28.96875 27.121094 L 29.449219 27.046875 L 29.929688 26.878906 L 30.527344 26.59375 L 30.742188 26.496094 L 30.816406 26.519531 L 30.769531 26.710938 L 30.574219 27.097656 L 30.335938 27.433594 L 30.097656 27.695312 L 29.953125 27.792969 L 29.878906 27.886719 L 29.640625 28.441406 L 29.398438 28.800781 L 29.207031 29.015625 L 28.894531 29.113281 L 28.007812 29.28125 L 27.289062 29.375 L 26.425781 29.425781 L 25.585938 29.425781 L 24.960938 29.351562 L 24.070312 29.183594 L 22.921875 28.894531 L 21.960938 28.609375 L 20.976562 28.273438 L 20.28125 27.984375 L 19.679688 27.71875 L 19.222656 27.480469 L 18.742188 27.191406 L 18.40625 26.929688 L 18.121094 26.640625 L 17.953125 26.375 L 17.832031 26.136719 L 17.734375 25.777344 L 17.710938 25.558594 L 17.710938 25.273438 L 17.761719 24.863281 L 17.785156 24.695312 L 17.566406 24.457031 L 17.398438 24.191406 L 17.28125 23.902344 L 17.257812 23.761719 L 17.257812 23.328125 L 17.351562 23.113281 L 17.519531 22.96875 Z M 17.59375 22.945312 "/>
<path style=" stroke:none;fill-rule:nonzero;fill:rgb(15.294118%,31.37255%,99.607843%);fill-opacity:1;" d="M 18.289062 22.175781 L 18.382812 22.199219 L 18.503906 22.488281 L 18.574219 22.894531 L 18.671875 23.039062 L 18.863281 23.015625 L 19.632812 22.632812 L 20.039062 22.558594 L 20.160156 22.585938 L 20.304688 22.679688 L 20.375 22.753906 L 20.542969 23.304688 L 20.640625 23.734375 L 20.785156 24.144531 L 20.855469 24.265625 L 21.070312 24.214844 L 21.40625 24.046875 L 21.71875 23.855469 L 21.910156 23.761719 L 22.007812 23.785156 L 22.128906 24.070312 L 22.296875 24.574219 L 22.464844 24.863281 L 22.65625 25.03125 L 22.847656 25.03125 L 23.136719 24.886719 L 23.472656 24.574219 L 23.664062 24.40625 L 23.734375 24.335938 L 23.855469 24.335938 L 24.144531 24.574219 L 24.3125 24.839844 L 24.527344 25.320312 L 24.695312 25.535156 L 24.792969 25.609375 L 24.910156 25.585938 L 25.152344 25.441406 L 25.488281 25.105469 L 25.753906 24.886719 L 25.824219 24.839844 L 25.945312 24.839844 L 26.136719 25.175781 L 26.425781 25.800781 L 26.59375 25.992188 L 26.664062 26.015625 L 26.878906 26.015625 L 27.070312 25.871094 L 27.335938 25.535156 L 27.550781 25.273438 L 27.671875 25.152344 L 27.769531 25.175781 L 28.078125 25.441406 L 28.320312 25.585938 L 28.558594 25.585938 L 28.824219 25.488281 L 28.992188 25.320312 L 29.160156 25.078125 L 29.257812 24.984375 L 29.449219 24.984375 L 29.832031 25.175781 L 30.214844 25.390625 L 30.433594 25.535156 L 30.40625 25.679688 L 30.265625 25.894531 L 30.144531 26.015625 L 29.855469 26.230469 L 29.472656 26.425781 L 29.113281 26.566406 L 28.632812 26.6875 L 28.054688 26.785156 L 27.71875 26.808594 L 27.046875 26.808594 L 26.617188 26.785156 L 25.847656 26.664062 L 24.984375 26.496094 L 24.265625 26.304688 L 23.496094 26.0625 L 22.847656 25.824219 L 22.222656 25.558594 L 21.527344 25.222656 L 20.6875 24.792969 L 20.230469 24.527344 L 19.777344 24.238281 L 19.390625 24 L 19.152344 23.832031 L 18.769531 23.566406 L 18.527344 23.375 L 18.335938 23.207031 L 18.191406 23.015625 L 18.097656 22.726562 L 18.097656 22.414062 L 18.238281 22.199219 Z M 18.289062 22.175781 "/>
<path style=" stroke:none;fill-rule:nonzero;fill:rgb(96.470588%,98.039216%,99.215686%);fill-opacity:1;" d="M 23.328125 6.816406 L 23.664062 6.816406 L 24.046875 6.886719 L 24.359375 7.007812 L 24.695312 7.222656 L 24.863281 7.390625 L 25.078125 7.726562 L 25.199219 8.039062 L 25.246094 8.375 L 25.222656 8.761719 L 25.105469 9.121094 L 24.9375 9.40625 L 24.71875 9.648438 L 24.40625 9.863281 L 24.070312 10.007812 L 23.761719 10.078125 L 23.28125 10.078125 L 22.871094 9.984375 L 22.585938 9.863281 L 22.320312 9.671875 L 22.128906 9.480469 L 21.960938 9.214844 L 21.863281 8.953125 L 21.792969 8.640625 L 21.792969 8.230469 L 21.886719 7.847656 L 22.054688 7.535156 L 22.320312 7.246094 L 22.632812 7.03125 L 22.894531 6.910156 L 23.160156 6.839844 Z M 23.328125 6.816406 "/>
<path style=" stroke:none;fill-rule:nonzero;fill:rgb(96.078432%,98.039216%,99.215686%);fill-opacity:1;" d="M 28.632812 7.632812 L 28.921875 7.632812 L 29.328125 7.703125 L 29.640625 7.824219 L 29.832031 7.921875 L 30.097656 8.113281 L 30.265625 8.28125 L 30.480469 8.617188 L 30.601562 8.953125 L 30.625 9.070312 L 30.625 9.550781 L 30.550781 9.839844 L 30.359375 10.222656 L 30.144531 10.488281 L 29.902344 10.679688 L 29.542969 10.847656 L 29.304688 10.921875 L 29.113281 10.945312 L 28.894531 10.945312 L 28.441406 10.847656 L 28.03125 10.679688 L 27.769531 10.488281 L 27.503906 10.222656 L 27.3125 9.886719 L 27.214844 9.574219 L 27.191406 9.457031 L 27.191406 9.046875 L 27.289062 8.6875 L 27.480469 8.304688 L 27.742188 8.015625 L 27.984375 7.847656 L 28.222656 7.726562 L 28.464844 7.65625 Z M 28.632812 7.632812 "/>
<path style=" stroke:none;fill-rule:nonzero;fill:rgb(96.078432%,98.039216%,99.215686%);fill-opacity:1;" d="M 14.160156 10.296875 L 14.617188 10.296875 L 14.953125 10.390625 L 15.289062 10.585938 L 15.527344 10.800781 L 15.742188 11.113281 L 15.886719 11.425781 L 15.9375 11.664062 L 15.9375 12.070312 L 15.839844 12.40625 L 15.648438 12.742188 L 15.457031 12.984375 L 15.265625 13.175781 L 15 13.390625 L 14.59375 13.726562 L 14.28125 13.992188 L 14.183594 14.0625 L 14.0625 14.039062 L 13.753906 13.65625 L 13.464844 13.320312 L 13.273438 13.078125 L 13.054688 12.816406 L 12.792969 12.503906 L 12.601562 12.265625 L 12.382812 12 L 12.382812 11.953125 L 12.335938 11.953125 L 12.167969 11.734375 L 12.167969 11.617188 L 12.359375 11.472656 L 12.671875 11.207031 L 12.910156 11.015625 L 13.296875 10.703125 L 13.632812 10.488281 L 13.894531 10.367188 Z M 14.160156 10.296875 "/>
<path style=" stroke:none;fill-rule:nonzero;fill:rgb(96.078432%,98.039216%,99.215686%);fill-opacity:1;" d="M 33.503906 9.816406 L 33.601562 9.863281 L 33.9375 10.128906 L 34.558594 10.65625 L 34.753906 10.824219 L 34.921875 10.992188 L 35.089844 11.230469 L 35.230469 11.519531 L 35.304688 11.785156 L 35.304688 12.289062 L 35.230469 12.527344 L 35.089844 12.816406 L 34.871094 13.105469 L 34.632812 13.320312 L 34.390625 13.464844 L 34.03125 13.585938 L 33.910156 13.609375 L 33.527344 13.585938 L 33.144531 13.464844 L 32.785156 13.273438 L 32.472656 13.03125 L 32.113281 12.71875 L 31.632812 12.335938 L 31.535156 12.265625 L 31.558594 12.121094 L 31.753906 11.902344 L 31.945312 11.664062 L 32.207031 11.351562 L 32.425781 11.089844 L 32.617188 10.847656 L 32.902344 10.511719 L 33.167969 10.175781 Z M 33.503906 9.816406 "/>
<path style=" stroke:none;fill-rule:nonzero;fill:rgb(95.686275%,97.647059%,99.215686%);fill-opacity:1;" d="M 24.40625 38.785156 L 24.863281 38.785156 L 25.199219 38.878906 L 25.414062 39 L 25.65625 39.214844 L 25.800781 39.457031 L 25.894531 39.71875 L 25.921875 39.863281 L 25.921875 40.128906 L 25.847656 40.414062 L 25.703125 40.679688 L 25.488281 40.921875 L 25.246094 41.0625 L 25.007812 41.160156 L 24.71875 41.207031 L 24.527344 41.207031 L 24.167969 41.136719 L 23.832031 40.96875 L 23.617188 40.777344 L 23.472656 40.535156 L 23.375 40.246094 L 23.351562 40.105469 L 23.351562 39.839844 L 23.425781 39.550781 L 23.542969 39.335938 L 23.761719 39.097656 L 23.976562 38.929688 L 24.289062 38.808594 Z M 24.40625 38.785156 "/>
<path style=" stroke:none;fill-rule:nonzero;fill:rgb(95.294118%,97.647059%,99.215686%);fill-opacity:1;" d="M 31.128906 36.40625 L 31.535156 36.40625 L 31.824219 36.503906 L 32.039062 36.648438 L 32.257812 36.863281 L 32.398438 37.105469 L 32.472656 37.296875 L 32.496094 37.441406 L 32.496094 37.703125 L 32.398438 38.015625 L 32.230469 38.28125 L 32.015625 38.519531 L 31.703125 38.761719 L 31.128906 39.191406 L 31.03125 39.167969 L 30.769531 38.832031 L 30.527344 38.519531 L 30.214844 38.113281 L 29.929688 37.726562 L 29.664062 37.390625 L 29.761719 37.273438 L 30.144531 36.984375 L 30.457031 36.742188 L 30.792969 36.527344 L 31.054688 36.433594 Z M 31.128906 36.40625 "/>
<path style=" stroke:none;fill-rule:nonzero;fill:rgb(96.078432%,97.647059%,99.215686%);fill-opacity:1;" d="M 19.199219 7.488281 L 19.296875 7.535156 L 19.464844 7.96875 L 19.414062 8.0625 L 19.054688 8.207031 L 18.359375 8.472656 L 18 8.617188 L 17.953125 8.617188 L 18.097656 8.976562 L 18.214844 9.3125 L 18.214844 9.359375 L 18.457031 9.289062 L 19.390625 8.929688 L 19.558594 8.878906 L 19.65625 9.023438 L 19.777344 9.335938 L 19.753906 9.433594 L 19.558594 9.527344 L 18.9375 9.769531 L 18.480469 9.9375 L 18.503906 10.078125 L 18.742188 10.703125 L 18.816406 10.871094 L 18.816406 11.039062 L 18.359375 11.207031 L 18.238281 11.257812 L 18.144531 11.230469 L 18.046875 11.039062 L 17.710938 10.152344 L 17.0625 8.425781 L 17.089844 8.328125 L 17.328125 8.207031 L 19.03125 7.558594 Z M 19.199219 7.488281 "/>
<path style=" stroke:none;fill-rule:nonzero;fill:rgb(95.294118%,97.647059%,99.215686%);fill-opacity:1;" d="M 34.726562 31.105469 L 35.039062 31.105469 L 35.28125 31.175781 L 35.496094 31.320312 L 35.640625 31.511719 L 35.710938 31.65625 L 35.734375 31.847656 L 36.097656 31.726562 L 36.480469 31.609375 L 36.601562 31.609375 L 36.574219 31.753906 L 36.433594 32.113281 L 36.335938 32.183594 L 35.761719 32.351562 L 35.664062 32.351562 L 35.519531 32.832031 L 35.761719 32.902344 L 36.070312 33.023438 L 36.097656 33.121094 L 35.953125 33.527344 L 35.734375 33.503906 L 34.511719 33.070312 L 33.816406 32.832031 L 33.71875 32.761719 L 33.792969 32.542969 L 34.078125 31.726562 L 34.199219 31.511719 L 34.414062 31.273438 L 34.585938 31.152344 Z M 34.726562 31.105469 "/>
<path style=" stroke:none;fill-rule:nonzero;fill:rgb(95.294118%,97.647059%,99.215686%);fill-opacity:1;" d="M 28.03125 38.113281 L 28.441406 38.113281 L 28.703125 38.207031 L 28.921875 38.398438 L 29.0625 38.6875 L 29.089844 38.761719 L 29.089844 39.121094 L 28.992188 39.335938 L 28.894531 39.457031 L 28.894531 39.527344 L 29.375 39.863281 L 29.519531 39.960938 L 29.496094 40.054688 L 29.207031 40.175781 L 29.089844 40.222656 L 28.992188 40.199219 L 28.414062 39.816406 L 28.246094 39.839844 L 27.984375 39.9375 L 28.007812 40.105469 L 28.128906 40.414062 L 28.128906 40.535156 L 28.007812 40.609375 L 27.671875 40.726562 L 27.601562 40.65625 L 27.289062 39.792969 L 27.097656 39.289062 L 26.929688 38.785156 L 26.878906 38.664062 L 26.878906 38.519531 L 27.695312 38.207031 Z M 28.03125 38.113281 "/>
<path style=" stroke:none;fill-rule:nonzero;fill:rgb(15.294118%,31.37255%,99.607843%);fill-opacity:1;" d="M 23.328125 7.464844 L 23.6875 7.464844 L 23.929688 7.535156 L 24.167969 7.679688 L 24.3125 7.847656 L 24.433594 8.089844 L 24.480469 8.230469 L 24.480469 8.6875 L 24.382812 8.953125 L 24.238281 9.144531 L 24.046875 9.3125 L 23.855469 9.40625 L 23.59375 9.457031 L 23.375 9.457031 L 23.0625 9.359375 L 22.800781 9.167969 L 22.65625 8.953125 L 22.558594 8.710938 L 22.535156 8.566406 L 22.535156 8.328125 L 22.609375 8.039062 L 22.726562 7.824219 L 22.945312 7.609375 L 23.207031 7.488281 Z M 23.328125 7.464844 "/>
<path style=" stroke:none;fill-rule:nonzero;fill:rgb(15.294118%,31.37255%,99.607843%);fill-opacity:1;" d="M 28.800781 8.28125 L 28.992188 8.28125 L 29.28125 8.351562 L 29.519531 8.472656 L 29.710938 8.664062 L 29.855469 8.929688 L 29.902344 9.144531 L 29.878906 9.457031 L 29.808594 9.695312 L 29.640625 9.960938 L 29.449219 10.128906 L 29.207031 10.246094 L 29.136719 10.273438 L 28.726562 10.273438 L 28.390625 10.152344 L 28.175781 9.984375 L 28.03125 9.769531 L 27.960938 9.574219 L 27.9375 9.480469 L 27.9375 9.167969 L 28.007812 8.902344 L 28.128906 8.664062 L 28.34375 8.449219 L 28.585938 8.328125 Z M 28.800781 8.28125 "/>
<path style=" stroke:none;fill-rule:nonzero;fill:rgb(95.686275%,97.647059%,99.215686%);fill-opacity:1;" d="M 15.382812 34.152344 L 15.527344 34.175781 L 15.742188 34.488281 L 15.792969 34.558594 L 15.769531 34.65625 L 15.359375 35.351562 L 14.617188 36.574219 L 14.496094 36.742188 L 14.425781 36.71875 L 14.183594 36.359375 L 14.207031 36.191406 L 14.398438 35.902344 L 14.375 35.761719 L 14.113281 35.398438 L 13.871094 35.039062 L 13.847656 35.015625 L 13.585938 35.039062 L 13.320312 35.089844 L 13.222656 34.992188 L 13.03125 34.726562 L 13.054688 34.632812 L 13.246094 34.558594 Z M 15.382812 34.152344 "/>
<path style=" stroke:none;fill-rule:nonzero;fill:rgb(15.294118%,31.37255%,99.607843%);fill-opacity:1;" d="M 14.089844 10.992188 L 14.449219 10.992188 L 14.710938 11.089844 L 14.929688 11.257812 L 15.121094 11.519531 L 15.214844 11.761719 L 15.238281 11.855469 L 15.238281 12.070312 L 15.144531 12.359375 L 14.953125 12.625 L 14.761719 12.816406 L 14.542969 12.984375 L 14.375 13.128906 L 14.257812 13.105469 L 14.039062 12.839844 L 13.777344 12.527344 L 13.558594 12.265625 L 13.320312 11.976562 L 13.128906 11.734375 L 13.105469 11.640625 L 13.367188 11.425781 L 13.558594 11.257812 L 13.824219 11.089844 Z M 14.089844 10.992188 "/>
<path style=" stroke:none;fill-rule:nonzero;fill:rgb(15.294118%,31.37255%,99.607843%);fill-opacity:1;" d="M 33.648438 10.753906 L 33.769531 10.777344 L 34.007812 10.992188 L 34.222656 11.160156 L 34.390625 11.328125 L 34.535156 11.566406 L 34.609375 11.832031 L 34.609375 12.023438 L 34.535156 12.289062 L 34.390625 12.503906 L 34.222656 12.695312 L 33.9375 12.863281 L 33.839844 12.886719 L 33.480469 12.886719 L 33.238281 12.816406 L 32.976562 12.648438 L 32.710938 12.433594 L 32.472656 12.238281 L 32.519531 12.121094 L 32.785156 11.808594 L 33.214844 11.28125 L 33.480469 10.96875 Z M 33.648438 10.753906 "/>
<path style=" stroke:none;fill-rule:nonzero;fill:rgb(94.509804%,97.254902%,99.215686%);fill-opacity:1;" d="M 33.238281 33.769531 L 33.359375 33.839844 L 33.574219 34.007812 L 33.527344 34.105469 L 33.214844 34.535156 L 32.929688 34.945312 L 32.953125 35.039062 L 33.238281 35.230469 L 33.335938 35.183594 L 33.863281 34.464844 L 33.960938 34.441406 L 34.222656 34.632812 L 34.246094 34.703125 L 34.054688 34.945312 L 33.839844 35.257812 L 33.671875 35.496094 L 33.648438 35.566406 L 33.769531 35.617188 L 34.03125 35.808594 L 34.152344 35.6875 L 34.367188 35.398438 L 34.609375 35.0625 L 34.777344 34.847656 L 34.871094 34.871094 L 35.136719 35.039062 L 35.113281 35.160156 L 34.921875 35.398438 L 34.535156 35.953125 L 34.222656 36.382812 L 34.105469 36.527344 L 33.984375 36.480469 L 33.71875 36.289062 L 33.265625 35.976562 L 32.808594 35.640625 L 32.375 35.328125 L 32.230469 35.230469 L 32.230469 35.113281 L 32.398438 34.894531 L 32.566406 34.65625 L 32.878906 34.222656 L 33.070312 33.960938 L 33.191406 33.792969 Z M 33.238281 33.769531 "/>
<path style=" stroke:none;fill-rule:nonzero;fill:rgb(94.509804%,97.254902%,99.215686%);fill-opacity:1;" d="M 16.871094 36.238281 L 17.160156 36.238281 L 17.425781 36.335938 L 17.664062 36.480469 L 17.953125 36.742188 L 18.144531 37.007812 L 18.214844 37.152344 L 18.191406 37.246094 L 17.902344 37.390625 L 17.785156 37.367188 L 17.664062 37.128906 L 17.449219 36.886719 L 17.304688 36.792969 L 17.089844 36.742188 L 16.945312 36.816406 L 16.921875 36.960938 L 17.015625 37.152344 L 17.328125 37.558594 L 17.472656 37.824219 L 17.496094 37.921875 L 17.496094 38.207031 L 17.425781 38.351562 L 17.257812 38.542969 L 17.015625 38.664062 L 16.703125 38.664062 L 16.441406 38.566406 L 16.175781 38.425781 L 15.839844 38.089844 L 15.648438 37.800781 L 15.574219 37.632812 L 15.601562 37.535156 L 15.886719 37.367188 L 16.007812 37.390625 L 16.105469 37.632812 L 16.296875 37.894531 L 16.488281 38.0625 L 16.679688 38.160156 L 16.824219 38.160156 L 16.945312 38.0625 L 16.921875 37.921875 L 16.777344 37.679688 L 16.511719 37.320312 L 16.390625 37.078125 L 16.34375 36.910156 L 16.367188 36.695312 L 16.488281 36.480469 L 16.679688 36.3125 Z M 16.871094 36.238281 "/>
<path style=" stroke:none;fill-rule:nonzero;fill:rgb(94.901961%,97.254902%,99.215686%);fill-opacity:1;" d="M 13.96875 31.007812 L 14.089844 31.007812 L 14.160156 31.175781 L 14.472656 32.136719 L 14.617188 32.542969 L 14.617188 32.664062 L 14.496094 32.734375 L 14.304688 32.808594 L 14.230469 32.808594 L 14.113281 32.519531 L 13.847656 31.753906 L 13.847656 31.679688 L 13.535156 31.777344 L 13.273438 31.847656 L 13.585938 32.761719 L 13.585938 32.878906 L 13.390625 32.953125 L 13.273438 33 L 13.175781 32.976562 L 13.007812 32.519531 L 12.839844 32.039062 L 12.648438 32.0625 L 12.097656 32.257812 L 12 32.207031 L 11.902344 31.894531 L 11.902344 31.726562 L 12.71875 31.441406 L 13.921875 31.03125 Z M 13.96875 31.007812 "/>
<path style=" stroke:none;fill-rule:nonzero;fill:rgb(94.901961%,97.254902%,99.215686%);fill-opacity:1;" d="M 19.054688 37.558594 L 19.273438 37.632812 L 20.855469 38.328125 L 20.878906 38.351562 L 20.878906 38.496094 L 20.734375 38.761719 L 20.59375 38.734375 L 20.160156 38.542969 L 20.039062 38.519531 L 19.367188 40.03125 L 19.273438 40.199219 L 19.152344 40.152344 L 18.839844 40.007812 L 18.792969 39.9375 L 19.105469 39.214844 L 19.441406 38.472656 L 19.535156 38.230469 L 19.320312 38.160156 L 18.910156 37.992188 L 18.886719 37.871094 L 19.03125 37.585938 Z M 19.054688 37.558594 "/>
<path style=" stroke:none;fill-rule:nonzero;fill:rgb(97.254902%,98.431373%,99.215686%);fill-opacity:1;" d="M 38.664062 23.230469 L 38.976562 23.230469 L 39.214844 23.304688 L 39.40625 23.449219 L 39.527344 23.640625 L 39.574219 23.808594 L 39.574219 24.191406 L 39.480469 24.433594 L 39.289062 24.625 L 39.046875 24.742188 L 38.929688 24.769531 L 38.761719 24.769531 L 38.519531 24.695312 L 38.304688 24.550781 L 38.160156 24.359375 L 38.113281 24.238281 L 38.089844 24.097656 L 38.089844 23.855469 L 38.160156 23.617188 L 38.328125 23.425781 L 38.519531 23.28125 Z M 38.664062 23.230469 "/>
<path style=" stroke:none;fill-rule:nonzero;fill:rgb(97.254902%,98.431373%,99.215686%);fill-opacity:1;" d="M 8.425781 23.230469 L 8.710938 23.230469 L 8.953125 23.304688 L 9.097656 23.398438 L 9.265625 23.59375 L 9.3125 23.710938 L 9.335938 23.855469 L 9.335938 24.167969 L 9.238281 24.40625 L 9.070312 24.601562 L 8.929688 24.695312 L 8.6875 24.769531 L 8.519531 24.769531 L 8.28125 24.695312 L 8.089844 24.574219 L 7.921875 24.382812 L 7.847656 24.144531 L 7.847656 23.832031 L 7.921875 23.617188 L 8.0625 23.425781 L 8.28125 23.28125 Z M 8.425781 23.230469 "/>
<path style=" stroke:none;fill-rule:nonzero;fill:rgb(15.294118%,31.37255%,99.607843%);fill-opacity:1;" d="M 24.457031 39.265625 L 24.816406 39.265625 L 25.054688 39.359375 L 25.246094 39.574219 L 25.34375 39.792969 L 25.367188 39.910156 L 25.367188 40.105469 L 25.296875 40.34375 L 25.152344 40.535156 L 24.9375 40.679688 L 24.742188 40.726562 L 24.503906 40.726562 L 24.289062 40.65625 L 24.046875 40.441406 L 23.929688 40.199219 L 23.929688 39.792969 L 24.023438 39.574219 L 24.191406 39.382812 L 24.359375 39.289062 Z M 24.457031 39.265625 "/>
<path style=" stroke:none;fill-rule:nonzero;fill:rgb(15.294118%,31.37255%,99.607843%);fill-opacity:1;" d="M 31.152344 36.910156 L 31.34375 36.910156 L 31.609375 37.007812 L 31.703125 37.078125 L 31.703125 37.128906 L 31.753906 37.128906 L 31.894531 37.34375 L 31.96875 37.585938 L 31.945312 37.824219 L 31.824219 38.039062 L 31.703125 38.183594 L 31.320312 38.472656 L 31.222656 38.496094 L 30.960938 38.183594 L 30.71875 37.847656 L 30.382812 37.414062 L 30.382812 37.367188 L 30.695312 37.128906 L 30.960938 36.960938 Z M 31.152344 36.910156 "/>
<path style=" stroke:none;fill-rule:nonzero;fill:rgb(15.294118%,31.37255%,99.607843%);fill-opacity:1;" d="M 28.128906 38.566406 L 28.367188 38.617188 L 28.511719 38.785156 L 28.535156 38.855469 L 28.535156 39.121094 L 28.441406 39.238281 L 28.199219 39.382812 L 27.792969 39.527344 L 27.695312 39.3125 L 27.550781 38.902344 L 27.527344 38.785156 L 27.71875 38.6875 L 27.984375 38.59375 Z M 28.128906 38.566406 "/>
<path style=" stroke:none;fill-rule:nonzero;fill:rgb(15.294118%,31.37255%,99.607843%);fill-opacity:1;" d="M 34.753906 31.65625 L 34.96875 31.65625 L 35.160156 31.753906 L 35.257812 31.894531 L 35.28125 32.089844 L 35.136719 32.566406 L 35.089844 32.664062 L 34.800781 32.59375 L 34.414062 32.449219 L 34.34375 32.398438 L 34.390625 32.183594 L 34.511719 31.894531 L 34.609375 31.753906 Z M 34.753906 31.65625 "/>
<path style=" stroke:none;fill-rule:nonzero;fill:rgb(15.294118%,31.37255%,99.607843%);fill-opacity:1;" d="M 15.046875 34.703125 L 15.144531 34.703125 L 15.121094 34.824219 L 14.734375 35.398438 L 14.640625 35.398438 L 14.375 35.039062 L 14.304688 34.945312 L 14.304688 34.871094 L 14.929688 34.726562 Z M 15.046875 34.703125 "/>
<path style=" stroke:none;fill-rule:nonzero;fill:rgb(63.529414%,81.176472%,99.215686%);fill-opacity:1;" d="M 14.160156 10.296875 L 14.617188 10.296875 L 14.953125 10.390625 L 15.167969 10.511719 L 15.121094 10.535156 L 14.855469 10.414062 L 14.664062 10.367188 L 14.183594 10.367188 L 13.945312 10.414062 L 13.609375 10.558594 L 13.390625 10.703125 L 13.34375 10.679688 L 13.585938 10.511719 L 13.894531 10.367188 Z M 14.160156 10.296875 "/>
<path style=" stroke:none;fill-rule:nonzero;fill:rgb(63.529414%,81.176472%,99.215686%);fill-opacity:1;" d="M 34.320312 12.574219 L 34.320312 12.648438 L 34.078125 12.839844 L 33.839844 12.9375 L 33.574219 12.960938 L 33.238281 12.863281 L 32.953125 12.671875 L 32.902344 12.601562 L 33 12.648438 L 33.238281 12.792969 L 33.480469 12.863281 L 33.839844 12.863281 L 34.078125 12.769531 L 34.296875 12.601562 Z M 34.320312 12.574219 "/>
<path style=" stroke:none;fill-rule:nonzero;fill:rgb(71.372551%,85.09804%,99.215686%);fill-opacity:1;" d="M 27.3125 20.0625 L 27.457031 20.0625 L 27.527344 20.160156 L 27.527344 20.28125 L 27.433594 20.328125 L 27.191406 20.230469 L 27.238281 20.113281 Z M 27.3125 20.0625 "/>
<path style=" stroke:none;fill-rule:nonzero;fill:rgb(63.921571%,81.176472%,99.215686%);fill-opacity:1;" d="M 25.152344 20.929688 L 25.246094 20.976562 L 25.320312 21.097656 L 25.296875 21.191406 L 25.105469 21.167969 L 24.984375 21.097656 L 25.03125 20.976562 Z M 25.152344 20.929688 "/>
<path style=" stroke:none;fill-rule:nonzero;fill:rgb(69.803923%,84.313726%,99.215686%);fill-opacity:1;" d="M 21.527344 20.472656 L 21.625 20.519531 L 21.671875 20.566406 L 21.671875 20.710938 L 21.625 20.761719 L 21.457031 20.734375 L 21.382812 20.640625 L 21.40625 20.542969 Z M 21.527344 20.472656 "/>
<path style=" stroke:none;fill-rule:nonzero;fill:rgb(63.529414%,81.176472%,99.215686%);fill-opacity:1;" d="M 26.953125 21.671875 L 27.097656 21.671875 L 27.167969 21.769531 L 27.167969 21.886719 L 27.144531 21.910156 L 26.976562 21.910156 L 26.878906 21.839844 L 26.878906 21.71875 Z M 26.953125 21.671875 "/>
<path style=" stroke:none;fill-rule:nonzero;fill:rgb(63.529414%,81.176472%,99.215686%);fill-opacity:1;" d="M 27.9375 22.273438 L 28.078125 22.273438 L 28.128906 22.34375 L 28.128906 22.464844 L 28.078125 22.511719 L 27.863281 22.488281 L 27.839844 22.464844 L 27.839844 22.34375 Z M 27.9375 22.273438 "/>
<path style=" stroke:none;fill-rule:nonzero;fill:rgb(83.137256%,90.980393%,99.215686%);fill-opacity:1;" d="M 23.472656 19.007812 L 23.59375 19.007812 L 23.6875 19.105469 L 23.664062 19.222656 L 23.59375 19.273438 L 23.472656 19.273438 L 23.425781 19.222656 L 23.425781 19.054688 Z M 23.472656 19.007812 "/>
<path style=" stroke:none;fill-rule:nonzero;fill:rgb(70.588237%,84.705883%,99.215686%);fill-opacity:1;" d="M 25.488281 19.414062 L 25.632812 19.414062 L 25.726562 19.535156 L 25.679688 19.632812 L 25.464844 19.632812 L 25.390625 19.585938 L 25.441406 19.441406 Z M 25.488281 19.414062 "/>
<path style=" stroke:none;fill-rule:nonzero;fill:rgb(63.529414%,81.176472%,99.215686%);fill-opacity:1;" d="M 38.113281 37.007812 L 38.113281 37.078125 L 37.871094 37.320312 L 37.703125 37.511719 L 37.414062 37.800781 L 37.222656 37.96875 L 37.105469 38.089844 L 37.054688 38.0625 L 37.414062 37.703125 L 37.609375 37.535156 L 37.777344 37.367188 L 37.945312 37.175781 Z M 38.113281 37.007812 "/>
<path style=" stroke:none;fill-rule:nonzero;fill:rgb(63.529414%,81.176472%,99.215686%);fill-opacity:1;" d="M 24.238281 9.121094 L 24.238281 9.191406 L 24.070312 9.335938 L 23.878906 9.433594 L 23.617188 9.503906 L 23.304688 9.480469 L 23.015625 9.359375 L 22.945312 9.289062 L 23.0625 9.335938 L 23.375 9.433594 L 23.59375 9.433594 L 23.855469 9.382812 L 24.046875 9.289062 Z M 24.238281 9.121094 "/>
<path style=" stroke:none;fill-rule:nonzero;fill:rgb(63.529414%,81.176472%,99.215686%);fill-opacity:1;" d="M 13.921875 35.0625 L 14.039062 35.183594 L 14.28125 35.542969 L 14.472656 35.808594 L 14.449219 35.929688 L 14.230469 36.265625 L 14.183594 36.359375 L 14.207031 36.191406 L 14.398438 35.902344 L 14.375 35.761719 L 14.113281 35.398438 L 13.921875 35.113281 Z M 13.921875 35.0625 "/>
<path style=" stroke:none;fill-rule:nonzero;fill:rgb(72.156864%,85.490197%,99.215686%);fill-opacity:1;" d="M 23.59375 21.503906 L 23.761719 21.503906 L 23.855469 21.601562 L 23.832031 21.695312 L 23.734375 21.71875 L 23.566406 21.671875 L 23.542969 21.527344 Z M 23.59375 21.503906 "/>
<path style=" stroke:none;fill-rule:nonzero;fill:rgb(65.882355%,82.352942%,99.215686%);fill-opacity:1;" d="M 22.007812 19.414062 L 22.175781 19.414062 L 22.199219 19.441406 L 22.199219 19.585938 L 22.152344 19.632812 L 21.9375 19.609375 L 21.910156 19.488281 Z M 22.007812 19.414062 "/>
<path style=" stroke:none;fill-rule:nonzero;fill:rgb(65.098041%,81.960785%,99.215686%);fill-opacity:1;" d="M 26.183594 22.296875 L 26.375 22.296875 L 26.449219 22.390625 L 26.425781 22.511719 L 26.183594 22.488281 L 26.136719 22.34375 Z M 26.183594 22.296875 "/>
<path style=" stroke:none;fill-rule:nonzero;fill:rgb(63.529414%,81.176472%,99.215686%);fill-opacity:1;" d="M 27.886719 21 L 28.007812 21.046875 L 28.03125 21.191406 L 27.742188 21.191406 L 27.695312 21.144531 L 27.71875 21.046875 Z M 27.886719 21 "/>
<path style=" stroke:none;fill-rule:nonzero;fill:rgb(63.529414%,81.176472%,99.215686%);fill-opacity:1;" d="M 23.519531 20.160156 L 23.664062 20.160156 L 23.710938 20.257812 L 23.710938 20.375 L 23.664062 20.425781 L 23.542969 20.425781 L 23.472656 20.328125 L 23.496094 20.183594 Z M 23.519531 20.160156 "/>
<path style=" stroke:none;fill-rule:nonzero;fill:rgb(63.529414%,81.176472%,99.215686%);fill-opacity:1;" d="M 26.207031 20.6875 L 26.351562 20.710938 L 26.425781 20.785156 L 26.398438 20.902344 L 26.230469 20.902344 L 26.136719 20.832031 L 26.160156 20.734375 Z M 26.207031 20.6875 "/>
<path style=" stroke:none;fill-rule:nonzero;fill:rgb(63.529414%,81.176472%,99.215686%);fill-opacity:1;" d="M 31.824219 38.015625 L 31.824219 38.089844 L 31.65625 38.28125 L 31.390625 38.472656 L 31.296875 38.542969 L 31.199219 38.519531 L 31.199219 38.449219 L 31.273438 38.472656 L 31.488281 38.328125 L 31.726562 38.136719 Z M 31.824219 38.015625 "/>
<path style=" stroke:none;fill-rule:nonzero;fill:rgb(71.372551%,85.09804%,99.215686%);fill-opacity:1;" d="M 22.441406 7.152344 L 22.488281 7.175781 L 22.105469 7.558594 L 21.984375 7.753906 L 21.960938 7.703125 L 22.105469 7.488281 L 22.320312 7.246094 Z M 22.441406 7.152344 "/>
<path style=" stroke:none;fill-rule:nonzero;fill:rgb(63.529414%,81.176472%,99.215686%);fill-opacity:1;" d="M 31.679688 37.054688 L 31.777344 37.105469 L 31.921875 37.320312 L 31.992188 37.535156 L 31.992188 37.753906 L 31.945312 37.824219 L 31.945312 37.585938 L 31.871094 37.34375 L 31.753906 37.175781 L 31.753906 37.128906 L 31.703125 37.128906 Z M 31.679688 37.054688 "/>
<path style=" stroke:none;fill-rule:nonzero;fill:rgb(73.333335%,86.274511%,99.215686%);fill-opacity:1;" d="M 27.863281 7.921875 L 27.910156 7.945312 L 27.457031 8.398438 L 27.503906 8.28125 L 27.71875 8.039062 Z M 27.863281 7.921875 "/>
<path style=" stroke:none;fill-rule:nonzero;fill:rgb(63.529414%,81.176472%,99.215686%);fill-opacity:1;" d="M 32.785156 10.65625 L 32.785156 10.726562 L 32.566406 10.992188 L 32.375 11.207031 L 32.375 11.136719 L 32.640625 10.824219 Z M 32.785156 10.65625 "/>
<path style=" stroke:none;fill-rule:nonzero;fill:rgb(99.215686%,99.607843%,99.607843%);fill-opacity:1;" d="M 27 21.695312 L 27.097656 21.71875 L 27.097656 21.816406 L 27.070312 21.839844 L 26.929688 21.839844 L 26.902344 21.742188 Z M 27 21.695312 "/>
<path style=" stroke:none;fill-rule:nonzero;fill:rgb(99.215686%,99.607843%,99.607843%);fill-opacity:1;" d="M 26.207031 20.734375 L 26.375 20.761719 L 26.375 20.878906 L 26.207031 20.855469 L 26.183594 20.761719 Z M 26.207031 20.734375 "/>
<path style=" stroke:none;fill-rule:nonzero;fill:rgb(63.529414%,81.176472%,99.215686%);fill-opacity:1;" d="M 15.097656 34.65625 L 15.214844 34.65625 L 15.167969 34.800781 L 15.144531 34.703125 L 14.832031 34.777344 L 14.6875 34.777344 L 14.785156 34.726562 Z M 15.097656 34.65625 "/>
<path style=" stroke:none;fill-rule:nonzero;fill:rgb(63.529414%,81.176472%,99.215686%);fill-opacity:1;" d="M 38.761719 36.265625 L 38.761719 36.335938 L 38.472656 36.671875 L 38.375 36.742188 L 38.425781 36.648438 L 38.640625 36.40625 Z M 38.761719 36.265625 "/>
<path style=" stroke:none;fill-rule:nonzero;fill:rgb(99.215686%,99.607843%,99.607843%);fill-opacity:1;" d="M 27.839844 21.046875 L 27.960938 21.046875 L 27.960938 21.144531 L 27.886719 21.167969 L 27.769531 21.167969 L 27.742188 21.070312 Z M 27.839844 21.046875 "/>
<path style=" stroke:none;fill-rule:nonzero;fill:rgb(63.529414%,81.176472%,99.215686%);fill-opacity:1;" d="M 39.167969 35.761719 L 39.167969 35.832031 L 38.902344 36.167969 L 38.832031 36.214844 L 38.878906 36.121094 L 39.121094 35.808594 Z M 39.167969 35.761719 "/>
<path style=" stroke:none;fill-rule:nonzero;fill:rgb(99.215686%,99.607843%,99.607843%);fill-opacity:1;" d="M 27.910156 22.320312 L 28.078125 22.320312 L 28.078125 22.367188 L 27.9375 22.390625 L 27.960938 22.464844 L 27.863281 22.441406 L 27.886719 22.34375 Z M 27.910156 22.320312 "/>
<path style=" stroke:none;fill-rule:nonzero;fill:rgb(99.215686%,99.607843%,99.607843%);fill-opacity:1;" d="M 25.105469 21 L 25.222656 21.023438 L 25.199219 21.144531 L 25.152344 21.144531 L 25.152344 21.097656 L 25.03125 21.070312 Z M 25.105469 21 "/>
<path style=" stroke:none;fill-rule:nonzero;fill:rgb(63.529414%,81.176472%,99.215686%);fill-opacity:1;" d="M 33.046875 35.136719 L 33.289062 35.230469 L 33.382812 35.160156 L 33.335938 35.28125 L 33.238281 35.304688 L 33.046875 35.160156 Z M 33.046875 35.136719 "/>
<path style=" stroke:none;fill-rule:nonzero;fill:rgb(97.647059%,98.823529%,99.215686%);fill-opacity:1;" d="M 23.542969 20.207031 L 23.664062 20.207031 L 23.640625 20.328125 L 23.542969 20.328125 L 23.519531 20.230469 Z M 23.542969 20.207031 "/>
</g>
</svg>
