<svg width="21" height="24" viewBox="0 0 21 24" fill="none" xmlns="http://www.w3.org/2000/svg">
<path d="M10.125 0.375C10.125 0.1875 10.2656 0 10.5 0C10.6875 0 10.875 0.1875 10.875 0.375V1.5V1.54688C14.8125 1.73438 18 5.01562 18 9V10.7344C18 12.7031 18.6562 14.5781 19.875 16.125L20.6719 17.1094C20.8594 17.3438 20.9531 17.6719 20.9531 18.0469C20.9531 18.8438 20.2969 19.5 19.5 19.5H1.45312C0.65625 19.5 0 18.8438 0 18.0469C0 17.7188 0.09375 17.3906 0.28125 17.1094L1.07812 16.125C2.29688 14.5781 3 12.7031 3 10.7344V9C3 5.01562 6.14062 1.73438 10.125 1.54688V1.5V0.375ZM10.5 2.25C6.75 2.25 3.75 5.29688 3.75 9V10.7344C3.75 12.8438 3 14.9531 1.6875 16.5938L0.890625 17.5781C0.796875 17.7188 0.75 17.8594 0.75 18.0469C0.75 18.4219 1.07812 18.75 1.45312 18.75H19.5C19.9219 18.75 20.25 18.4219 20.25 18.0469C20.25 17.8594 20.1562 17.7188 20.0625 17.5781L19.2656 16.5938C17.9531 14.9531 17.25 12.8906 17.25 10.7344V9C17.25 5.29688 14.2031 2.25 10.5 2.25ZM8.25 21C8.25 21.6094 8.48438 22.1719 8.90625 22.5938C9.32812 23.0156 9.89062 23.25 10.5 23.25C11.0625 23.25 11.625 23.0156 12.0469 22.5938C12.4688 22.1719 12.75 21.6094 12.75 21C12.75 20.8125 12.8906 20.625 13.125 20.625C13.3125 20.625 13.5 20.8125 13.5 21C13.5 21.7969 13.1719 22.5938 12.6094 23.1562C12.0469 23.7188 11.2969 24 10.5 24C9.70312 24 8.90625 23.7188 8.34375 23.1562C7.78125 22.5938 7.5 21.7969 7.5 21C7.5 20.8125 7.64062 20.625 7.875 20.625C8.0625 20.625 8.25 20.8125 8.25 21Z" fill="#191C32"/>
</svg>
