<svg width="29" height="29" viewBox="0 0 29 29" fill="none" xmlns="http://www.w3.org/2000/svg">
<path d="M14.4375 0.5C21.9297 0.5 28 6.57031 28 14.0625C28 14.3359 27.7812 14.5 27.5625 14.5C27.2891 14.5 27.125 14.3359 27.125 14.0625C27.125 7.0625 21.4375 1.375 14.4375 1.375C14.1641 1.375 14 1.21094 14 0.9375C14 0.71875 14.1641 0.5 14.4375 0.5ZM14.875 12.75C14.875 13.2422 15.2578 13.625 15.75 13.625C16.1875 13.625 16.625 13.2422 16.625 12.75C16.625 12.3125 16.1875 11.875 15.75 11.875C15.2578 11.875 14.875 12.3125 14.875 12.75ZM17.5 12.75C17.5 13.7344 16.6797 14.5 15.75 14.5C14.7656 14.5 14 13.7344 14 12.75C14 11.8203 14.7656 11 15.75 11C16.6797 11 17.5 11.8203 17.5 12.75ZM14 6.1875C14 5.96875 14.1641 5.75 14.4375 5.75C18.9766 5.75 22.75 9.52344 22.75 14.0625C22.75 14.3359 22.5312 14.5 22.3125 14.5C22.0391 14.5 21.875 14.3359 21.875 14.0625C21.875 9.96094 18.5391 6.625 14.4375 6.625C14.1641 6.625 14 6.46094 14 6.1875ZM16.2422 21.4453C12.25 19.5312 8.96875 16.25 7.05469 12.2578C6.89062 11.875 7 11.4375 7.27344 11.1641L10.0078 8.97656C10.4453 8.59375 10.6094 7.99219 10.3906 7.44531L8.20312 2.19531C7.92969 1.59375 7.27344 1.26562 6.61719 1.42969L1.80469 2.74219C1.25781 2.90625 0.875 3.45312 0.875 4C0.875 17.0703 11.4297 27.625 24.5 27.625C25.0469 27.625 25.5938 27.2422 25.7578 26.6953L27.0703 21.8828C27.2344 21.2266 26.9062 20.5703 26.3047 20.2969L21.0547 18.1094C20.5078 17.8906 19.9062 18.0547 19.5234 18.4922L17.3359 21.2266C17.0625 21.5 16.625 21.6094 16.2422 21.4453ZM18.8672 17.9453C19.4688 17.1797 20.5078 16.9609 21.3828 17.3438L26.6328 19.5312C27.6719 19.9141 28.1641 21.0625 27.8906 22.1016L26.5781 26.9141C26.3047 27.8438 25.4844 28.5 24.5 28.5C10.9375 28.5 0 17.5625 0 4C0 3.01562 0.65625 2.19531 1.58594 1.92188L6.39844 0.609375C7.4375 0.335938 8.58594 0.882812 8.96875 1.86719L11.1562 7.11719C11.5391 7.99219 11.3203 9.03125 10.5547 9.63281L7.875 11.875C9.67969 15.7031 12.7969 18.8203 16.625 20.625L18.8672 17.9453Z" fill="#191C32"/>
</svg>
