<svg width="21" height="24" viewBox="0 0 21 24" fill="none" xmlns="http://www.w3.org/2000/svg">
<path d="M14.25 6C14.25 5.48438 14.1094 4.96875 13.9219 4.5H13.875C12.8906 4.5 12.0469 4.07812 11.4844 3.375C10.8281 4.5 9.60938 5.25 8.25 5.25H6.79688C6.75 5.53125 6.75 5.76562 6.75 6V6.75C6.75 8.85938 8.39062 10.5 10.5 10.5C12.5625 10.5 14.25 8.85938 14.25 6.75V6ZM4.5 6C4.5 2.71875 7.17188 0 10.5 0C13.7812 0 16.5 2.71875 16.5 6V6.75C16.5 10.0781 13.7812 12.75 10.5 12.75C7.17188 12.75 4.5 10.0781 4.5 6.75V6ZM7.35938 15.375L9.89062 18.7031C10.1719 19.125 10.7812 19.125 11.0625 18.7031L13.5938 15.375C13.7344 15.1406 14.0156 15.0469 14.25 15.0469C18.0469 15.4688 21 18.7031 21 22.5938C21 23.3906 20.3438 24 19.5469 24H1.40625C0.609375 24 0 23.3906 0 22.5938C0 18.7031 2.90625 15.4688 6.70312 15.0469C6.9375 15.0469 7.21875 15.1406 7.35938 15.375Z" fill="#191C32"/>
</svg>
