<svg width="24" height="24" viewBox="0 0 24 24" fill="none" xmlns="http://www.w3.org/2000/svg">
<path d="M11.1094 1.07812L2.8125 4.59375C2.01562 4.92188 1.45312 5.67188 1.5 6.5625C1.5 11.1094 3.375 19.2656 11.0625 22.9219C11.625 23.2031 12.3281 23.2031 12.8906 22.9219C20.5781 19.2656 22.4531 11.1094 22.5 6.5625C22.5 5.67188 21.9375 4.92188 21.1406 4.59375L12.8438 1.07812C12.2812 0.84375 11.6719 0.84375 11.1094 1.07812ZM13.1719 0.375L21.4219 3.89062C22.4531 4.35938 23.25 5.34375 23.25 6.5625C23.2031 11.25 21.2812 19.7344 13.2188 23.625C12.4219 24 11.5312 24 10.7344 23.625C2.67188 19.7344 0.75 11.25 0.75 6.5625C0.703125 5.34375 1.5 4.35938 2.53125 3.89062L10.8281 0.375C11.5781 0.046875 12.4219 0.046875 13.1719 0.375ZM12 8.25C11.1562 8.25 10.5 8.95312 10.5 9.75C10.5 10.5938 11.1562 11.25 12 11.25C12.7969 11.25 13.5 10.5938 13.5 9.75C13.5 8.95312 12.7969 8.25 12 8.25ZM14.25 9.75C14.25 10.875 13.4062 11.8125 12.375 12V15.375C12.375 15.6094 12.1875 15.75 12 15.75C11.7656 15.75 11.625 15.6094 11.625 15.375V12C10.5469 11.8125 9.75 10.875 9.75 9.75C9.75 8.53125 10.7344 7.5 12 7.5C13.2188 7.5 14.25 8.53125 14.25 9.75Z" fill="#191C32"/>
</svg>
