<svg width="33" height="25" viewBox="0 0 33 25" fill="none" xmlns="http://www.w3.org/2000/svg">
<path d="M6.79688 5.33594C4.33594 7.57812 2.69531 10.3125 1.92969 12.1719C1.82031 12.3906 1.82031 12.6641 1.92969 12.8828C2.69531 14.6875 4.33594 17.4219 6.79688 19.7188C9.25781 22.0156 12.5938 23.875 16.75 23.875C20.8516 23.875 24.1875 22.0156 26.6484 19.7188C29.1094 17.4219 30.75 14.6875 31.5156 12.8828C31.625 12.6641 31.625 12.3906 31.5156 12.1719C30.75 10.3125 29.1094 7.57812 26.6484 5.33594C24.1875 3.03906 20.8516 1.125 16.75 1.125C12.5938 1.125 9.25781 3.03906 6.79688 5.33594ZM16.75 0.25C21.125 0.25 24.6797 2.27344 27.25 4.67969C29.8203 7.03125 31.5156 9.875 32.3359 11.8438C32.5 12.2812 32.5 12.7734 32.3359 13.2109C31.5156 15.125 29.8203 17.9688 27.25 20.375C24.6797 22.7812 21.125 24.75 16.75 24.75C12.3203 24.75 8.76562 22.7812 6.19531 20.375C3.625 17.9688 1.92969 15.125 1.10938 13.2109C0.945312 12.7734 0.945312 12.2812 1.10938 11.8438C1.92969 9.875 3.625 7.03125 6.19531 4.67969C8.76562 2.27344 12.3203 0.25 16.75 0.25ZM11.5 12.5C11.5 14.4141 12.4844 16.1094 14.125 17.0938C15.7109 18.0234 17.7344 18.0234 19.375 17.0938C20.9609 16.1094 22 14.4141 22 12.5C22 10.6406 20.9609 8.94531 19.375 7.96094C17.7344 7.03125 15.7109 7.03125 14.125 7.96094C12.4844 8.94531 11.5 10.6406 11.5 12.5ZM22.875 12.5C22.875 14.7422 21.6719 16.7109 19.8125 17.8047C17.8984 18.9531 15.5469 18.9531 13.6875 17.8047C11.7734 16.7109 10.625 14.7422 10.625 12.5C10.625 10.3125 11.7734 8.34375 13.6875 7.25C15.5469 6.10156 17.8984 6.10156 19.8125 7.25C21.6719 8.34375 22.875 10.3125 22.875 12.5Z" fill="#191C32"/>
</svg>
